<svg width="512" height="512" viewBox="0 0 512 512" fill="none" xmlns="http://www.w3.org/2000/svg">
  <rect width="512" height="512" rx="128" fill="#F0FDFA" />
  <path
    d="M163.534 275.198C156.864 275.198 151.172 272.836 146.457 268.114C141.742 263.391 139.385 257.689 139.385 251.008C139.385 244.326 141.742 238.682 146.457 234.074C151.172 229.351 156.864 226.99 163.534 226.99C170.204 226.99 175.896 229.351 180.611 234.074C185.326 238.682 187.683 244.326 187.683 251.008C187.683 257.689 185.326 263.391 180.611 268.114C175.896 272.836 170.204 275.198 163.534 275.198ZM137.315 188.977C142.834 188.977 147.147 186.846 150.252 182.583C152.322 179.819 153.357 176.593 153.357 172.907L153.184 170.834C152.379 166.457 150.309 163.001 146.974 160.467C144.214 158.393 141.052 157.356 137.487 157.356C132.082 157.356 127.827 159.487 124.723 163.75C122.653 166.514 121.618 169.624 121.618 173.08L121.79 175.499C122.595 179.876 124.665 183.332 128 185.866C130.76 187.94 133.865 188.977 137.315 188.977ZM173.366 183.62C178.771 183.62 183.026 181.489 186.13 177.227C188.2 174.462 189.235 171.352 189.235 167.896C189.235 162.482 187.108 158.22 182.853 155.11C180.093 153.037 176.988 152 173.538 152C168.019 152 163.764 154.131 160.774 158.393C158.704 161.158 157.669 164.268 157.669 167.724C157.669 173.253 159.796 177.515 164.051 180.51C166.811 182.583 169.916 183.62 173.366 183.62ZM199.413 289.539C201.022 291.037 202.69 292.477 204.415 293.859C213.04 300.425 222.757 303.708 233.566 303.708V275.198C229.082 275.198 225.114 273.873 221.664 271.224C218.559 268.92 216.374 265.81 215.109 261.893C215.799 258.437 216.144 254.809 216.144 251.008C216.144 236.493 210.97 224.11 200.62 213.858C190.385 203.491 178.023 198.307 163.534 198.307C148.929 198.307 136.51 203.491 126.275 213.858C116.04 224.11 110.923 236.493 110.923 251.008C110.923 259.762 112.82 267.826 116.615 275.198H89.0163L81.944 238.912L54 244.269L65.5571 303.708H163.534C177.448 303.708 189.408 298.985 199.413 289.539Z"
    fill="#115E59" />
  <path
    d="M297.148 303.708V275.198C290.133 275.198 284.556 271.972 280.416 265.522C281.106 262.412 281.451 259.301 281.451 256.191C281.451 251.929 280.876 247.667 279.726 243.405L271.619 212.994L244.02 220.251L252.127 250.835C252.587 252.678 252.817 254.463 252.817 256.191C252.817 259.532 251.724 263.045 249.54 266.731C247.47 270.417 243.79 273.009 238.5 274.507C236.89 274.967 235.223 275.198 233.498 275.198V303.708C237.522 303.708 241.662 303.189 245.917 302.153C253.392 300.079 259.832 296.566 265.237 291.613C274.666 299.676 285.303 303.708 297.148 303.708ZM232.98 355.717L235.223 355.544C239.592 354.738 242.985 352.722 245.4 349.497C247.355 346.847 248.332 343.852 248.332 340.512C248.332 335.213 246.262 331.066 242.122 328.071C239.362 325.997 236.258 324.961 232.808 324.961L230.738 325.134C226.483 325.94 223.148 327.956 220.733 331.181C218.663 333.946 217.628 337.056 217.628 340.512L217.801 342.585C218.606 346.847 220.618 350.188 223.838 352.607C226.598 354.68 229.645 355.717 232.98 355.717ZM265.064 349.842L267.306 349.669C271.676 348.863 275.069 346.847 277.484 343.622C279.439 340.972 280.416 337.977 280.416 334.637C280.416 329.338 278.346 325.191 274.206 322.196C271.446 320.123 268.341 319.086 264.892 319.086L262.822 319.259C258.567 320.065 255.232 322.081 252.817 325.306C250.747 328.071 249.712 331.181 249.712 334.637L249.885 336.71C250.69 340.972 252.702 344.313 255.922 346.732C258.682 348.806 261.729 349.842 265.064 349.842Z"
    fill="#115E59" />
  <path d="M313.652 338.265L363.33 324.961L360.57 314.248L310.892 327.553L313.652 338.265Z"
    fill="#115E59" />
  <path
    d="M346.678 275.198C340.123 275.198 334.488 272.836 329.774 268.114C325.059 263.391 322.701 257.689 322.701 251.008C322.701 244.326 325.059 238.682 329.774 234.074C334.488 229.351 340.123 226.99 346.678 226.99C353.348 226.99 359.04 229.351 363.755 234.074C368.47 238.682 370.827 244.326 370.827 251.008C370.827 257.689 368.47 263.391 363.755 268.114C359.04 272.836 353.348 275.198 346.678 275.198ZM346.678 303.708C361.283 303.708 373.702 298.582 383.937 288.33C394.286 278.078 399.461 265.637 399.461 251.008C399.461 236.493 394.286 224.11 383.937 213.858C373.702 203.491 361.283 198.307 346.678 198.307C332.189 198.307 319.769 203.491 309.419 213.858C299.185 224.11 294.067 236.493 294.067 251.008C294.067 259.762 296.022 267.826 299.932 275.198H297.172V303.708H346.678ZM345.298 188.977L347.885 188.804C351.795 188.113 354.958 186.327 357.373 183.447C359.903 180.568 361.225 177.112 361.34 173.08C361.34 168.242 359.5 164.268 355.82 161.158C352.945 158.739 349.553 157.472 345.643 157.356L343.228 157.529C339.203 158.22 335.926 160.006 333.396 162.886C330.981 165.765 329.716 169.221 329.601 173.253C329.601 178.091 331.441 182.065 335.121 185.175C337.996 187.594 341.388 188.861 345.298 188.977Z"
    fill="#115E59" />
  <path d="M408.322 217.832L458 204.528L455.24 193.815L405.562 207.119L408.322 217.832Z"
    fill="#115E59" />
  <path
    d="M411.842 359C430.126 349.669 442.718 335.386 449.618 316.149C452.378 308.085 453.758 299.907 453.758 291.613C453.758 286.89 453.298 282.167 452.378 277.444L444.961 240.122L417.017 245.651L424.434 282.973C425.009 285.968 425.296 288.963 425.296 291.958C425.296 299.1 423.341 306.588 419.431 314.421C415.522 322.254 408.852 328.589 399.422 333.427L411.842 359Z"
    fill="#115E59" />
</svg>
